<?xml version="1.0" encoding="UTF-8"?>
<svg id="Layer_1" data-name="Layer 1" xmlns="http://www.w3.org/2000/svg" viewBox="0 0 461.39 401.34">
  <path d="m54.75,52.75h68.14c8.66,0,15.55,3.13,20.68,9.39s7.69,14.52,7.69,24.78c-.13,10.26-2.76,18.52-7.89,24.78s-11.96,9.39-20.48,9.39H54.75l-54.75-.07v169.72h54.75v-116.9h33.21l65.5,116.9h66.34l-69.43-119.72c6.86-1.8,13.22-4.45,19.08-7.97,11.99-7.19,21.34-17.32,28.07-30.37,6.73-13.06,10.09-28.31,10.09-45.76s-3.33-32.7-9.99-45.76c-6.66-13.06-16.02-23.18-28.07-30.37C157.49,3.59,143.4,0,127.28,0H0v52.77"/>
  <path d="m286.54.19v52.76h174.85V.19h-174.85Zm-19.78,0v52.76h54.75V.19h-54.75Z"/>
  <path d="m266.76,120.09v52.68c.13.02.25.04.38.07h172.27v-52.75h-172.65Z"/>
  <path d="m267.6,237.98c-.27.06-.55.1-.84.11v52.65h194.63v-52.76h-193.79Z"/>
  <path d="m20.43,400.74v-58.5h11.02v58.5h-11.02Zm5.03-22.69v-10.62h18.71c1.98,0,3.59-.66,4.83-1.99s1.85-3.08,1.85-5.25-.61-4-1.83-5.33c-1.22-1.33-2.84-1.99-4.85-1.99h-18.71v-10.62h18.43c3.7,0,6.93.74,9.68,2.23s4.89,3.57,6.42,6.26c1.53,2.68,2.29,5.83,2.29,9.46s-.76,6.73-2.29,9.41c-1.53,2.68-3.67,4.76-6.44,6.24-2.76,1.47-5.98,2.21-9.66,2.21h-18.43Z"/>
  <path d="m91.08,401.34c-4.29,0-8.04-.89-11.25-2.68-3.21-1.78-5.69-4.3-7.46-7.54s-2.66-7.03-2.66-11.35v-16.58c0-4.35.88-8.13,2.66-11.37,1.77-3.23,4.26-5.74,7.46-7.52,3.21-1.78,6.95-2.67,11.25-2.67s8.04.89,11.25,2.67c3.2,1.78,5.69,4.29,7.46,7.52,1.77,3.23,2.66,7.02,2.66,11.37v16.58c0,4.32-.88,8.1-2.66,11.35s-4.26,5.76-7.46,7.54c-3.21,1.78-6.95,2.68-11.25,2.68Zm0-11.02c3,0,5.41-.94,7.22-2.82,1.81-1.88,2.72-4.36,2.72-7.44v-17.14c0-3.11-.91-5.6-2.72-7.46s-4.22-2.8-7.22-2.8-5.41.93-7.22,2.8-2.72,4.35-2.72,7.46v17.14c0,3.08.91,5.57,2.72,7.44,1.81,1.88,4.22,2.82,7.22,2.82Z"/>
  <path d="m123.3,400.74v-58.54h11.02v58.54h-11.02Zm4.39-23.54v-10.62h20.36c1.72,0,3.09-.63,4.12-1.89,1.03-1.26,1.56-2.92,1.59-4.99,0-2.06-.52-3.73-1.55-4.99-1.03-1.26-2.42-1.89-4.16-1.89h-20.36v-10.62h21.24c3.25,0,6.08.72,8.51,2.17,2.43,1.45,4.31,3.49,5.65,6.12,1.34,2.63,2.01,5.7,2.01,9.21s-.68,6.58-2.03,9.21-3.24,4.67-5.65,6.12-5.24,2.17-8.49,2.17h-21.24Zm26.51,23.54l-14.2-25.35,11.79-1.85,15.77,27.2h-13.36Z"/>
  <path d="m168.96,352.86v-10.62h42.89v10.62h-42.89Zm15.93,47.88v-53.71h11.02v53.71h-11.02Z"/>
  <path d="m218.29,400.74v-58.5h11.02v58.5h-11.02Zm4.02-47.88v-10.62h34.4v10.62h-34.4Zm0,24.66v-10.62h29.97v10.62h-29.97Z"/>
  <path d="m284.51,401.34c-4.29,0-8.04-.89-11.25-2.68-3.21-1.78-5.69-4.3-7.46-7.54-1.77-3.25-2.66-7.03-2.66-11.35v-16.58c0-4.35.88-8.13,2.66-11.37,1.77-3.23,4.26-5.74,7.46-7.52,3.21-1.78,6.95-2.67,11.25-2.67s8.04.89,11.24,2.67c3.21,1.78,5.69,4.29,7.46,7.52,1.77,3.23,2.66,7.02,2.66,11.37v16.58c0,4.32-.89,8.1-2.66,11.35-1.77,3.25-4.26,5.76-7.46,7.54-3.21,1.78-6.95,2.68-11.24,2.68Zm0-11.02c3,0,5.41-.94,7.22-2.82,1.81-1.88,2.72-4.36,2.72-7.44v-17.14c0-3.11-.91-5.6-2.72-7.46s-4.22-2.8-7.22-2.8-5.41.93-7.22,2.8-2.72,4.35-2.72,7.46v17.14c0,3.08.91,5.57,2.72,7.44,1.81,1.88,4.22,2.82,7.22,2.82Z"/>
  <path d="m316.74,400.74v-58.5h11.02v58.5h-11.02Zm4.91,0v-10.62h34.28v10.62h-34.28Z"/>
  <path d="m374.59,342.24v58.5h-11.43v-58.5h11.43Z"/>
  <path d="m406.82,401.34c-4.29,0-8.04-.89-11.25-2.68-3.21-1.78-5.69-4.3-7.46-7.54-1.77-3.25-2.66-7.03-2.66-11.35v-16.58c0-4.35.88-8.13,2.66-11.37,1.77-3.23,4.26-5.74,7.46-7.52,3.21-1.78,6.95-2.67,11.25-2.67s8.04.89,11.24,2.67c3.21,1.78,5.69,4.29,7.46,7.52,1.77,3.23,2.66,7.02,2.66,11.37v16.58c0,4.32-.89,8.1-2.66,11.35-1.77,3.25-4.26,5.76-7.46,7.54-3.21,1.78-6.95,2.68-11.24,2.68Zm0-11.02c3,0,5.41-.94,7.22-2.82,1.81-1.88,2.72-4.36,2.72-7.44v-17.14c0-3.11-.91-5.6-2.72-7.46s-4.22-2.8-7.22-2.8-5.41.93-7.22,2.8-2.72,4.35-2.72,7.46v17.14c0,3.08.91,5.57,2.72,7.44,1.81,1.88,4.22,2.82,7.22,2.82Z"/>
</svg>